<svg viewBox="0 0 7 16" xmlns="http://www.w3.org/2000/svg" width="7" height="16"><path fill="white" d="M4.026 0L3.75.07c-.316.044-.614.16-.847.296L2.393.8h.023c-.297.298-.55.642-.678 1.077-.042.092-.085.206-.106.32-.02.115-.02.207-.042.32V3.162c0 1.532-.043 2.288-.064 2.288H0v2.678h1.59V16h2.945V8.195l1.886-.07.32-2.677-2.183-.023c0-.023-.022-.572-.022-1.694 0-.25.064-.457.17-.64.063-.068.127-.16.21-.206l.17-.09c.043-.025.128-.047.213-.047h.043l.806.114.34.048.338.022L7.1.23 4.407 0h-.382z"/></svg>