<svg xmlns="http://www.w3.org/2000/svg" width="30" height="30" viewBox="0 0 30 30">
<path fill="white" d="M21.532 10.665c.838 1.243 1.346 2.725 1.346 4.335 0 4.316-3.51 7.817-7.84 7.817-4.327 0-7.838-3.5-7.838-7.817 0-1.61.51-3.092 1.345-4.335H0v16.493C0 28.728 1.275 30 2.85 30h24.38c1.573 0 2.85-1.272 2.85-2.842V10.665h-8.548zM27.23 0H2.85C1.275 0 0 1.27 0 2.842v6.033h10.18c1.336-1.056 3.022-1.692 4.858-1.692 1.837 0 3.524.636 4.86 1.692H30.08V2.842C30.08 1.272 28.802 0 27.23 0zm.587 5.506c0 .786-.64 1.42-1.426 1.42h-2c-.786 0-1.424-.634-1.424-1.42V3.51c0-.784.638-1.42 1.424-1.42h2c.788 0 1.427.637 1.427 1.42v1.996z"/>
<path fill="white" d="M21.148 15c0 3.362-2.736 6.09-6.11 6.09-3.37 0-6.104-2.728-6.104-6.09 0-3.36 2.733-6.09 6.105-6.09 3.372 0 6.108 2.73 6.108 6.09zM27.23 0H2.85C1.275 0 0 1.27 0 2.842v6.033h10.18c1.336-1.056 3.022-1.692 4.858-1.692 1.837 0 3.524.636 4.86 1.692H30.08V2.842C30.08 1.272 28.802 0 27.23 0zm.587 5.506c0 .786-.64 1.42-1.426 1.42h-2c-.786 0-1.424-.634-1.424-1.42V3.51c0-.784.638-1.42 1.424-1.42h2c.788 0 1.427.637 1.427 1.42v1.996z"/></svg>