<svg xmlns="http://www.w3.org/2000/svg" width="30" height="24" viewBox="0 0 30 24"><path fill="white" d="M30.3 2.8c-1.1.5-2.3.8-3.5 1C28 3 29 1.9 29.5.4c-1.2.7-2.5 1.2-3.9 1.5C24.4.7 22.8 0 21 0c-3.4 0-6.2 2.7-6.2 6.1 0 .5.1.9.2 1.4-5.1-.3-9.6-2.7-12.7-6.4-.5.9-.8 1.9-.8 3.1 0 2.1 1.1 4 2.7 5-1 0-2-.3-2.8-.8v.1c0 2.9 2.1 5.4 4.9 5.9-.5.1-1.1.2-1.6.2-.4 0-.8 0-1.2-.1.8 2.4 3.1 4.2 5.8 4.2-2.1 1.6-4.8 2.6-7.7 2.6-.5 0-1 0-1.5-.1C3 23 6.2 24 9.7 24 21 24 27.2 14.8 27.2 6.8V6c1.2-.9 2.3-1.9 3.1-3.2z"/></svg>